<?xml version="1.0" standalone="no"?>
<!DOCTYPE svg PUBLIC "-//W3C//DTD SVG 1.1//EN" "http://www.w3.org/Graphics/SVG/1.1/DTD/svg11.dtd">
<svg t="1702369828119" class="icon" viewBox="0 0 1024 1024" version="1.1"
    xmlns="http://www.w3.org/2000/svg" p-id="2010" xmlns:xlink="http://www.w3.org/1999/xlink"
    width="80" height="80">
    <path d="M276.3 569.8m-25.4 0a25.4 25.4 0 1 0 50.8 0 25.4 25.4 0 1 0-50.8 0Z" fill="#6B400D"
        p-id="2011"></path>
    <path
        d="M395.4 822h-58.1c-34 0-42.3-8.3-42.3-42.4V630h-0.2c-0.5-10.9-9.3-19.6-20.3-19.6s-19.8 8.7-20.3 19.6h-0.2v149.7c0 56.8 26.4 83.2 83.2 83.2h58.1c11.3 0 20.4-9.1 20.4-20.4s-9-20.5-20.3-20.5z"
        fill="#6B400D" p-id="2012"></path>
    <path
        d="M879.9 243.5c0-64.7-52.7-117.4-117.4-117.4h-62c-11-36-44.5-62.3-84-62.3H409.1c-39.5 0-73 26.3-84 62.3h-62c-64.7 0-117.4 52.7-117.4 117.4v597c0 64.7 52.7 117.4 117.4 117.4h499.4c64.7 0 117.4-52.7 117.4-117.4v-597zM409.1 108.8h207.5c23.7 0 42.9 19.2 42.9 42.9s-19.3 42.9-42.9 42.9H409.1c-23.7 0-42.9-19.2-42.9-42.9s19.2-42.9 42.9-42.9z m421 731.7c0 37.3-30.3 67.6-67.6 67.6H263.1c-37.3 0-67.6-30.3-67.6-67.6v-597c0-37.3 30.3-67.6 67.6-67.6h61.7c10.6 36.6 44.3 63.5 84.3 63.5h207.5c40 0 73.7-26.9 84.3-63.5h61.7c37.3 0 67.6 30.3 67.6 67.6l-0.1 597z"
        fill="#6B400D" p-id="2013"></path>
    <path
        d="M740.7 389.1H335.8c-14.5 0-26.3 11.9-26.3 26.3 0 14.5 11.9 26.3 26.3 26.3h404.9c14.5 0 26.3-11.9 26.3-26.3 0-14.5-11.8-26.3-26.3-26.3zM740.7 537H472.4c-14.5 0-26.3 11.9-26.3 26.3s11.9 26.3 26.3 26.3h268.3c14.5 0 26.3-11.9 26.3-26.3S755.2 537 740.7 537z"
        fill="#6B400D" p-id="2014"></path>
    <path
        d="M409.1 194.6h207.5c23.7 0 42.9-19.2 42.9-42.9s-19.3-42.9-42.9-42.9H409.1c-23.7 0-42.9 19.2-42.9 42.9s19.2 42.9 42.9 42.9z"
        fill="#8A8A8A" p-id="2015"></path>
</svg>